<?xml version="1.0" encoding="UTF-8"?>
<svg id="Layer_1" data-name="Layer 1" xmlns="http://www.w3.org/2000/svg" viewBox="0 0 314 314">
  <defs>
    <style>
      .cls-1 {
        fill: none;
        stroke-miterlimit: 10;
        stroke-width: 4px;
      }

      .cls-1, .cls-2 {
        stroke: #e7075c;
      }

      .cls-2 {
        fill: #3b1423;
        stroke-linecap: round;
        stroke-linejoin: round;
        stroke-width: 5px;
      }
    </style>
  </defs>
  <rect class="cls-2" x="3.5" y="3.5" width="307" height="307" rx="153.5" ry="153.5"/>
  <g>
    <path class="cls-1" d="M213.45,247.82l-41.51-4.98,2.32-19.39c.33-2.79,2.87-4.78,5.66-4.45l40.04,4.8-2.5,20.86c-.24,1.98-2.03,3.39-4.01,3.15Z"/>
    <path class="cls-1" d="M216.3,222.69l24.67-29.01c3.43-4.3,3.65-5.62,3.74-10.74l-1.4-39.58c-.08-2.19-1.92-3.91-4.11-3.83h0c-5.1.18-9.21,4.24-9.45,9.34l-.77,16.21"/>
    <path class="cls-1" d="M212.35,201.24l16.97-19.69c1.83-2.12,1.65-5.3-.4-7.21h0c-3.12-2.91-8-2.78-10.96.29l-13.15,13.64s-10.48-.94-19.48,9.62c-5.86,6.87-6.55,12.77-6.28,20.49"/>
    <circle class="cls-1" cx="207.55" cy="235.03" r=".78"/>
    <path class="cls-1" d="M100.55,247.82l41.51-4.98-2.32-19.39c-.33-2.79-2.87-4.78-5.66-4.45l-40.04,4.8,2.5,20.86c.24,1.98,2.03,3.39,4.01,3.15Z"/>
    <path class="cls-1" d="M97.7,222.69l-24.67-29.01c-3.43-4.3-3.65-5.62-3.74-10.74l1.4-39.58c.08-2.19,1.92-3.91,4.11-3.83h0c5.1.18,9.21,4.24,9.45,9.34l.77,16.21"/>
    <path class="cls-1" d="M101.65,201.24l-16.97-19.69c-1.83-2.12-1.65-5.3.4-7.21h0c3.12-2.91,8-2.78,10.96.29l13.15,13.64s10.48-.94,19.48,9.62c5.86,6.87,6.55,12.77,6.28,20.49"/>
    <path class="cls-1" d="M105.89,234.48c-.31.31-.31.8,0,1.11s.8.31,1.11,0c.31-.31.31-.8,0-1.11-.31-.31-.8-.31-1.11,0Z"/>
    <circle class="cls-1" cx="157.2" cy="79.34" r="10.03" transform="translate(31.29 202.45) rotate(-71.13)"/>
    <path class="cls-1" d="M157.15,102.59c6.3.02,11.97.78,15.43,1.78,5.38,1.56,8.12,5.87,8.12,11.19s-.72,19.09-.72,19.09c-.08,1.88-.37,5.14-3.62,7.54"/>
    <path class="cls-1" d="M157.15,102.59c-6.3.02-11.97.78-15.43,1.78-5.38,1.56-8.12,5.87-8.12,11.19s.72,19.09.72,19.09c.08,1.9,0,4.96,3.38,7.54"/>
    <path class="cls-1" d="M167.89,120.29l-1.42,58.87v1.2c0,2.19-1.78,3.97-3.97,3.97h-11.06c-2.19,0-3.97-1.78-3.97-3.97v-1.26l-.82-58.8"/>
    <circle class="cls-1" cx="192.27" cy="75.12" r="8.97" transform="translate(-14.15 75.6) rotate(-21.47)"/>
    <path class="cls-1" d="M192.23,96.22c5.64.02,10.79.7,13.89,1.6,4.81,1.4,7.27,5.25,7.27,10.02s-.71,17.09-.71,17.09c-.07,1.56-.44,4.74-2.72,6.6"/>
    <path class="cls-1" d="M192.23,96.22c-2.03,0-3.9.1-5.62.25-1.37.13-2.63.29-3.79.49"/>
    <path class="cls-1" d="M201.84,112.06l-1.27,52.69v1.07c0,1.96-1.59,3.55-3.55,3.55h-9.9c-1.96,0-3.55-1.59-3.55-3.55v-1.13l-.27-13.11"/>
    <circle class="cls-1" cx="122.06" cy="75.12" r="8.97" transform="translate(-8.8 16.67) rotate(-7.54)"/>
    <path class="cls-1" d="M122.11,96.22c-5.64.02-10.79.7-13.89,1.6-4.81,1.4-7.27,5.25-7.27,10.02s.71,17.09.71,17.09c.07,1.64.36,4.46,3.07,6.6"/>
    <path class="cls-1" d="M122.46,96.22c2.03,0,3.9.1,5.62.25,1.37.13,2.63.29,3.79.49"/>
    <path class="cls-1" d="M112.5,112.06l1.27,52.69v1.07c0,1.96,1.59,3.55,3.55,3.55h9.9c1.96,0,3.55-1.59,3.55-3.55v-1.13l.27-13.11"/>
  </g>
</svg>