<?xml version="1.0" encoding="UTF-8"?>
<svg id="Layer_1" data-name="Layer 1" xmlns="http://www.w3.org/2000/svg" viewBox="0 0 314 314">
  <defs>
    <style>
      .cls-1 {
        fill: none;
      }

      .cls-1, .cls-2 {
        stroke: #e7075c;
        stroke-linecap: round;
        stroke-linejoin: round;
        stroke-width: 5px;
      }

      .cls-2 {
        fill: #3b1423;
      }
    </style>
  </defs>
  <rect class="cls-2" x="1.42" y="3.5" width="307" height="307" rx="153.5" ry="153.5"/>
  <g>
    <path class="cls-1" d="M154.93,118.63c-12.01,0-21.75-10.55-21.75-23.56s9.74-23.56,21.75-23.56,21.74,10.55,21.74,23.56-9.74,23.56-21.74,23.56Z"/>
    <path class="cls-1" d="M135.61,178.87v-22.55c0-3.5-1.52-6.79-4.1-8.89l-26.97-23.76c-3.59-2.91-4.53-8.1-1.9-11.91,2.63-3.81,7.44-4.2,11.02-1.29l17.94,14.47c6.74,5.44,14.92,8.38,23.33,8.38h0c8.4,0,16.59-2.94,23.33-8.38l17.94-14.47c3.59-2.91,8.39-2.52,11.02,1.29,2.63,3.81,1.68,9-1.9,11.91l-26.97,23.76c-2.58,2.1-4.1,5.4-4.1,8.89v22.55"/>
    <path class="cls-1" d="M219.63,159.2l5.8,12.74c.42.93,1.24,1.58,2.19,1.73l12.97,2.04c2.39.38,3.34,3.56,1.61,5.38l-9.39,9.91c-.69.72-1,1.77-.84,2.79l2.22,14c.41,2.58-2.09,4.54-4.23,3.33l-11.6-6.61c-.85-.48-1.86-.48-2.71,0l-11.6,6.61c-2.14,1.22-4.63-.75-4.23-3.33l2.22-14c.16-1.02-.15-2.07-.84-2.79l-9.39-9.91c-1.73-1.83-.77-5.01,1.61-5.38l12.97-2.04c.95-.15,1.77-.79,2.19-1.73l5.8-12.74c1.07-2.35,4.15-2.35,5.22,0Z"/>
    <path class="cls-1" d="M95.45,159.2l5.8,12.74c.42.93,1.24,1.58,2.19,1.73l12.97,2.04c2.39.38,3.34,3.56,1.61,5.38l-9.39,9.91c-.69.72-1,1.77-.84,2.79l2.22,14c.41,2.58-2.09,4.54-4.23,3.33l-11.6-6.61c-.85-.48-1.86-.48-2.71,0l-11.6,6.61c-2.14,1.22-4.63-.75-4.23-3.33l2.22-14c.16-1.02-.15-2.07-.84-2.79l-9.39-9.91c-1.73-1.83-.77-5.01,1.61-5.38l12.97-2.04c.95-.15,1.77-.79,2.19-1.73l5.8-12.74c1.07-2.35,4.15-2.35,5.22,0Z"/>
    <path class="cls-1" d="M158.52,170.6l7.98,17.51c.58,1.28,1.71,2.17,3.01,2.37l17.84,2.81c3.28.52,4.6,4.89,2.22,7.4l-12.91,13.63c-.94,1-1.37,2.43-1.15,3.84l3.05,19.25c.56,3.54-2.87,6.25-5.81,4.57l-15.95-9.09c-1.17-.66-2.56-.66-3.73,0l-15.95,9.09c-2.94,1.67-6.37-1.03-5.81-4.57l3.05-19.25c.22-1.41-.21-2.84-1.15-3.84l-12.91-13.63c-2.38-2.51-1.07-6.88,2.22-7.4l17.84-2.81c1.3-.21,2.43-1.09,3.01-2.37l7.98-17.51c1.47-3.23,5.71-3.23,7.18,0Z"/>
  </g>
</svg>