<?xml version="1.0" encoding="UTF-8"?>
<svg id="Layer_1" data-name="Layer 1" xmlns="http://www.w3.org/2000/svg" viewBox="0 0 314 314">
  <defs>
    <style>
      .cls-1 {
        fill: #3b1423;
        stroke: #e7075c;
        stroke-linecap: round;
        stroke-linejoin: round;
        stroke-width: 5px;
      }

      .cls-2 {
        fill: #e7075c;
        stroke-width: 0px;
      }
    </style>
  </defs>
  <rect class="cls-1" x="3.5" y="3.5" width="307" height="307" rx="153.5" ry="153.5"/>
  <g>
    <g>
      <g>
        <path class="cls-2" d="M122.01,257.2c-.18,0-.36-.02-.55-.05-1.5-.3-2.47-1.76-2.17-3.26l20.81-104.17-39.05-36.66c-3.47-3.25-3.77-8.64-.69-12.26,1.59-1.87,3.82-2.98,6.28-3.12,2.46-.14,4.8.71,6.59,2.38l31.78,29.7c1.12,1.05,1.18,2.8.13,3.92-1.05,1.12-2.8,1.18-3.92.13l-31.78-29.7c-.68-.63-1.56-.96-2.49-.9-.93.05-1.77.47-2.37,1.18-1.16,1.37-1.05,3.4.26,4.63l40.17,37.72c.7.66,1.01,1.62.82,2.56l-21.11,105.68c-.26,1.32-1.42,2.23-2.72,2.23Z"/>
        <path class="cls-2" d="M193.2,257.2c-1.29,0-2.45-.91-2.72-2.23l-21.11-105.68c-.19-.96.13-1.94.85-2.59l41.52-37.72c1.35-1.23,1.48-3.28.3-4.67l-.03-.04c-.59-.7-1.42-1.11-2.33-1.17-.91-.06-1.79.24-2.47.85l-32.89,29.49c-1.14,1.02-2.89.93-3.91-.21-1.02-1.14-.93-2.89.21-3.91l32.89-29.49c1.8-1.62,4.13-2.42,6.54-2.26,2.42.16,4.61,1.27,6.18,3.11l.03.04c3.14,3.68,2.79,9.12-.79,12.37l-40.35,36.66,20.81,104.14c.3,1.5-.67,2.96-2.17,3.26-.18.04-.37.05-.55.05Z"/>
        <path class="cls-2" d="M157.4,132.02c-7.73,0-14.02-6.29-14.02-14.02s6.29-14.02,14.02-14.02,14.02,6.29,14.02,14.02-6.29,14.02-14.02,14.02ZM157.4,109.53c-4.67,0-8.47,3.8-8.47,8.47s3.8,8.47,8.47,8.47,8.47-3.8,8.47-8.47-3.8-8.47-8.47-8.47Z"/>
        <path class="cls-2" d="M181.95,257.2c-1.16,0-2.24-.73-2.63-1.89l-21.92-65.07-21.9,65.07c-.49,1.45-2.06,2.23-3.51,1.74-1.45-.49-2.23-2.06-1.74-3.51l24.53-72.87c.38-1.13,1.44-1.89,2.63-1.89,1.19,0,2.25.76,2.63,1.89l24.55,72.87c.49,1.45-.29,3.02-1.74,3.51-.29.1-.59.15-.89.15Z"/>
      </g>
      <path class="cls-2" d="M148.37,113.19c-1.31,0-2.47-.93-2.72-2.26l-3.26-17.31c-.21-1.13.3-2.28,1.28-2.88.99-.6,2.24-.53,3.15.19l4.78,3.74,3.2-8.69c.4-1.09,1.44-1.81,2.6-1.81s2.2.72,2.6,1.81l3.13,8.49,4.75-4.11c.89-.77,2.17-.9,3.19-.31,1.02.58,1.56,1.75,1.35,2.9l-3.26,17.96c-.27,1.51-1.72,2.51-3.22,2.23-1.51-.27-2.51-1.72-2.23-3.22l1.86-10.22-1.83,1.58c-.69.6-1.62.82-2.51.59-.88-.23-1.6-.87-1.91-1.73l-1.91-5.2-1.91,5.2c-.31.83-.99,1.47-1.84,1.71-.85.24-1.77.06-2.47-.48l-1.98-1.55,1.9,10.08c.28,1.5-.71,2.95-2.21,3.24-.17.03-.35.05-.52.05Z"/>
      <path class="cls-2" d="M84.02,219.82c-.57,0-1.15-.18-1.64-.54-1.13-.83-1.46-2.37-.77-3.6l40.91-73.18c.75-1.34,2.44-1.81,3.77-1.07,1.34.75,1.81,2.44,1.07,3.77l-36.05,64.49c6.38-2.17,16.09-3.08,29.3,2.04,1.43.55,2.14,2.16,1.58,3.59-.55,1.43-2.16,2.13-3.59,1.58-21.95-8.51-32.14,1.61-32.57,2.05-.54.57-1.27.87-2.01.87Z"/>
      <path class="cls-2" d="M230.98,219.81c-.74,0-1.48-.3-2.02-.87-.41-.42-10.6-10.54-32.55-2.03-1.43.55-3.03-.15-3.59-1.58-.55-1.43.15-3.03,1.58-3.59,13.21-5.12,22.92-4.21,29.3-2.04l-36.05-64.49c-.75-1.34-.27-3.03,1.07-3.77,1.34-.75,3.03-.27,3.77,1.07l40.91,73.18c.68,1.22.35,2.76-.78,3.59-.49.36-1.07.54-1.64.54Z"/>
    </g>
    <path class="cls-2" d="M84.03,140.05c-1.15,0-2.22-.72-2.62-1.86-.5-1.45.26-3.03,1.71-3.53l6.55-2.28c1.45-.5,3.03.26,3.53,1.71.5,1.45-.26,3.03-1.71,3.53l-6.55,2.28c-.3.1-.61.15-.91.15Z"/>
    <path class="cls-2" d="M217.87,133.16c-1.15,0-2.22-.72-2.62-1.86-.5-1.45.26-3.03,1.71-3.53l6.55-2.28c1.45-.5,3.03.26,3.53,1.71.5,1.45-.26,3.03-1.71,3.53l-6.55,2.28c-.3.1-.61.15-.91.15Z"/>
    <path class="cls-2" d="M190.07,95.86c-1.15,0-2.22-.72-2.62-1.86-.5-1.45.26-3.03,1.71-3.53l6.55-2.28c1.45-.5,3.03.26,3.53,1.71.5,1.45-.26,3.03-1.71,3.53l-6.55,2.28c-.3.1-.61.15-.91.15Z"/>
    <path class="cls-2" d="M124.94,92c-1.15,0-2.22-.72-2.62-1.86-.5-1.45.26-3.03,1.71-3.53l6.55-2.28c1.45-.5,3.03.26,3.53,1.71.5,1.45-.26,3.03-1.71,3.53l-6.55,2.28c-.3.1-.61.15-.91.15Z"/>
    <path class="cls-2" d="M87.47,112.83c-.11,0-.22,0-.33-.02l-6.89-.83c-1.52-.18-2.6-1.56-2.42-3.08.18-1.52,1.57-2.61,3.08-2.42l6.89.83c1.52.18,2.6,1.56,2.42,3.08-.17,1.41-1.37,2.44-2.75,2.44Z"/>
    <path class="cls-2" d="M222.51,84.87c-.11,0-.22,0-.33-.02l-6.89-.83c-1.52-.18-2.6-1.56-2.42-3.08.18-1.52,1.57-2.6,3.08-2.42l6.89.83c1.52.18,2.6,1.56,2.42,3.08-.17,1.41-1.37,2.44-2.75,2.44Z"/>
    <path class="cls-2" d="M79.7,94.85c-.54,0-1.09-.16-1.57-.49-1.26-.87-1.58-2.59-.72-3.85l3.93-5.72c.87-1.26,2.59-1.58,3.85-.72,1.26.87,1.58,2.59.72,3.85l-3.93,5.72c-.54.78-1.4,1.2-2.29,1.2Z"/>
    <path class="cls-2" d="M234.45,100.57c-.54,0-1.09-.16-1.57-.49-1.26-.87-1.58-2.59-.72-3.85l3.93-5.72c.87-1.26,2.59-1.58,3.85-.72,1.26.87,1.58,2.59.72,3.85l-3.93,5.72c-.54.78-1.41,1.2-2.29,1.2Z"/>
    <path class="cls-2" d="M242.67,158.15c-.54,0-1.09-.16-1.57-.49-1.26-.87-1.58-2.59-.72-3.85l3.93-5.72c.87-1.26,2.59-1.58,3.85-.72,1.26.87,1.58,2.59.72,3.85l-3.93,5.72c-.54.78-1.41,1.2-2.29,1.2Z"/>
    <path class="cls-2" d="M107.26,145.94c-.58,0-1.16-.18-1.66-.55l-5.56-4.15c-1.23-.92-1.48-2.65-.56-3.88.92-1.23,2.65-1.48,3.88-.56l5.56,4.15c1.23.92,1.48,2.65.56,3.88-.54.73-1.38,1.11-2.22,1.11Z"/>
    <path class="cls-2" d="M213.3,150.79c-.58,0-1.16-.18-1.66-.55l-5.56-4.15c-1.23-.92-1.48-2.65-.56-3.88.92-1.23,2.65-1.48,3.88-.56l5.56,4.15c1.23.92,1.48,2.65.56,3.88-.54.73-1.38,1.11-2.22,1.11Z"/>
    <path class="cls-2" d="M73.4,158.43c-.4,0-.8-.08-1.18-.26-1.39-.65-1.98-2.3-1.33-3.69l2.95-6.28c.65-1.39,2.3-1.98,3.69-1.33,1.39.65,1.98,2.3,1.33,3.69l-2.95,6.28c-.47,1-1.47,1.59-2.51,1.59Z"/>
    <path class="cls-2" d="M74.87,125.45c-.42,0-.84-.1-1.24-.3l-6.2-3.12c-1.37-.69-1.92-2.35-1.23-3.72.69-1.37,2.35-1.92,3.72-1.23l6.2,3.12c1.37.69,1.92,2.35,1.23,3.72-.49.97-1.46,1.53-2.48,1.53Z"/>
    <path class="cls-2" d="M241.48,117.74c-.42,0-.84-.1-1.24-.3l-6.2-3.12c-1.37-.69-1.92-2.35-1.23-3.72.69-1.37,2.35-1.92,3.72-1.23l6.2,3.12c1.37.69,1.92,2.35,1.23,3.72-.49.97-1.46,1.53-2.48,1.53Z"/>
    <path class="cls-2" d="M238.38,147.5c-.42,0-.84-.1-1.24-.3l-6.2-3.12c-1.37-.69-1.92-2.35-1.23-3.72.69-1.37,2.35-1.92,3.72-1.23l6.2,3.12c1.37.69,1.92,2.35,1.23,3.72-.49.97-1.46,1.53-2.48,1.53Z"/>
    <path class="cls-2" d="M110.36,87.57c-.42,0-.84-.1-1.24-.3l-6.2-3.12c-1.37-.69-1.92-2.35-1.23-3.72.69-1.37,2.35-1.92,3.72-1.23l6.2,3.12c1.37.69,1.92,2.35,1.23,3.72-.49.97-1.46,1.53-2.48,1.53Z"/>
  </g>
</svg>