<?xml version="1.0" encoding="UTF-8"?>
<svg id="Layer_1" data-name="Layer 1" xmlns="http://www.w3.org/2000/svg" viewBox="0 0 314 314">
  <defs>
    <style>
      .cls-1 {
        fill: #3b1423;
        stroke: #e7075c;
        stroke-linecap: round;
        stroke-linejoin: round;
        stroke-width: 5px;
      }

      .cls-2 {
        fill: #e7075c;
        stroke-width: 0px;
      }
    </style>
  </defs>
  <rect class="cls-1" x="3.5" y="3.5" width="307" height="307" rx="153.5" ry="153.5"/>
  <g>
    <path class="cls-2" d="M189.86,123.51c-6.82,0-12.37-5.55-12.37-12.37s5.55-12.37,12.37-12.37,12.37,5.55,12.37,12.37-5.55,12.37-12.37,12.37ZM189.86,104.51c-3.66,0-6.63,2.97-6.63,6.63s2.97,6.63,6.63,6.63,6.63-2.97,6.63-6.63-2.97-6.63-6.63-6.63Z"/>
    <path class="cls-2" d="M201.27,234.7c-1.33,0-2.53-.93-2.81-2.29l-11.15-54.03-18.62,5.91,2.3,22.46c.28,2.46-.5,4.94-2.14,6.79-1.65,1.86-4.03,2.93-6.51,2.93-4.46,0-8.18-3.34-8.67-7.78l-3.3-30.47c-.44-4.03,2.05-7.82,5.92-9.03l16.22-5.05v-23.26l-10.84,2.36c-.71.2-1.34.29-2.03.29-.8,0-1.58-.12-2.34-.36l-19.75-5.15c-.05-.01-.11-.03-.16-.05-4.1-1.32-6.44-5.55-5.33-9.63.57-2.11,1.94-3.84,3.86-4.88,1.86-1.01,4.08-1.22,6.1-.6l17.71,4.54,19.51-4.65c1.54-.37,3.09.58,3.46,2.13.37,1.54-.58,3.09-2.13,3.46l-20.2,4.82c-.45.11-.93.1-1.38-.01l-18.48-4.74c-.06-.01-.11-.03-.17-.05-.57-.18-1.17-.13-1.69.16-.52.28-.9.76-1.05,1.33-.29,1.07.37,2.24,1.49,2.63l19.72,5.14c.05.01.11.03.16.05.21.07.44.1.66.1.15,0,.26-.01.52-.09.07-.02.13-.04.2-.05l14.42-3.14c.85-.18,1.74.02,2.41.57.68.55,1.07,1.37,1.07,2.24v28.94c0,1.26-.82,2.37-2.02,2.74l-18.24,5.68c-1.25.39-2.06,1.62-1.92,2.93l3.3,30.47c.16,1.51,1.43,2.65,2.96,2.65.86,0,1.65-.35,2.22-1,.57-.64.83-1.47.73-2.32,0-.01,0-.03,0-.04l-2.54-24.81c-.14-1.35.69-2.62,1.99-3.03l23.88-7.58c.78-.25,1.62-.15,2.32.26.7.41,1.2,1.1,1.36,1.9l11.79,57.15c.32,1.55-.68,3.07-2.23,3.39-.2.04-.39.06-.58.06ZM204.31,168.1c-1.46,0-2.94-.42-4.17-1.17-1.28-.61-1.74-1.75-1.74-2.66,0-1.59,1.29-2.87,2.87-2.87.53,0,1.03.14,1.46.4.11.05.23.12.37.21.35.23.78.36,1.22.36.74,0,1.42-.36,1.82-.97l9.55-14.44c.62-.93.43-2.16-.43-2.86l-19.24-15.57c-1.23-1-1.42-2.81-.43-4.04,1-1.23,2.81-1.42,4.04-.43l19.24,15.57c3.17,2.57,3.87,7.08,1.61,10.49l-9.55,14.44c-1.47,2.22-3.94,3.54-6.61,3.54ZM199.93,166.79s0,0,0,0c0,0,0,0,0,0ZM204.14,164.26h0,0ZM204.14,164.26h0s0,0,0,0ZM204.14,164.25h0s0,0,0,0ZM204.14,164.24s0,0,0,0c0,0,0,0,0,0ZM204.09,163.71c.03.17.05.34.05.52,0-.18-.02-.35-.05-.52ZM201.27,158.41c-.27,0-.55-.04-.83-.12-1.21-.36-2.05-1.48-2.05-2.75v-13.41c0-1.11.64-2.12,1.64-2.59,1-.48,2.18-.34,3.04.36l5.77,4.67c1.15.93,1.4,2.58.59,3.82l-5.77,8.74c-.54.82-1.45,1.29-2.4,1.29Z"/>
    <path class="cls-2" d="M201.51,167.26c-.58,0-1.17-.18-1.68-.54-3.5-2.53-4.4-7.35-2.06-10.97l4.22-6.51c.86-1.33,2.64-1.71,3.97-.85,1.33.86,1.71,2.64.85,3.97l-4.22,6.51c-.68,1.05-.42,2.46.6,3.19,1.29.93,1.57,2.72.65,4.01-.56.78-1.44,1.19-2.33,1.19Z"/>
    <path class="cls-2" d="M214.34,245.7c-1.38,0-2.6-1-2.83-2.41l-11.22-68.6c-.26-1.57.81-3.04,2.37-3.3,1.57-.26,3.04.81,3.3,2.37l11.22,68.6c.26,1.57-.81,3.04-2.37,3.3-.16.03-.31.04-.47.04Z"/>
    <path class="cls-2" d="M76.19,206.48c-.67,0-1.35-.24-1.89-.71-1.19-1.05-1.31-2.86-.26-4.05l38.05-43.34c.97-1.11,2.62-1.3,3.82-.45l22.14,15.7c1.29.92,1.6,2.71.68,4-.92,1.29-2.71,1.6-4,.68l-20.03-14.21-36.35,41.4c-.57.65-1.36.98-2.16.98Z"/>
    <path class="cls-2" d="M153.99,191.33c-.57,0-1.15-.17-1.66-.53l-6.78-4.81c-1.29-.92-1.6-2.71-.68-4,.92-1.29,2.71-1.6,4-.68l6.78,4.81c1.29.92,1.6,2.71.68,4-.56.79-1.45,1.21-2.34,1.21Z"/>
    <path class="cls-2" d="M197.81,222.4c-.57,0-1.15-.17-1.66-.53l-20.8-14.75c-1.29-.92-1.6-2.71-.68-4,.92-1.29,2.71-1.6,4-.68l20.8,14.75c1.29.92,1.6,2.71.68,4-.56.79-1.45,1.21-2.34,1.21Z"/>
    <path class="cls-2" d="M238.22,251.06c-.57,0-1.15-.17-1.66-.53l-16.92-12c-1.29-.92-1.6-2.71-.68-4,.92-1.29,2.71-1.6,4-.68l16.92,12c1.29.92,1.6,2.71.68,4-.56.79-1.45,1.21-2.34,1.21Z"/>
    <path class="cls-2" d="M138.2,205.07c-1.53,0-2.8-1.21-2.87-2.75l-5.59-131.54c-.06-1.44.95-2.7,2.37-2.95l29.89-5.29c.79-.14,1.6.06,2.24.54s1.04,1.22,1.12,2.02l2.01,21.75c.13,1.44-.82,2.75-2.23,3.07l-28.57,6.45,4.49,105.7c.07,1.58-1.16,2.92-2.75,2.99-.04,0-.08,0-.12,0ZM135.59,73.05l.74,17.49,25.09-5.66-1.49-16.13-24.34,4.31Z"/>
    <path class="cls-2" d="M158.75,102.94c-.4,0-.8-.08-1.18-.25-.9-.41-1.53-1.24-1.66-2.22l-1.47-10.5c-.22-1.57.88-3.02,2.45-3.24,1.57-.22,3.02.88,3.24,2.45l.84,5.98,23.06-15.27-19.16,2.35c-1.57.19-3.01-.93-3.2-2.5-.19-1.57.93-3.01,2.5-3.2l31.26-3.84c1.32-.16,2.58.61,3.04,1.86.46,1.25,0,2.65-1.11,3.39l-37.03,24.51c-.48.32-1.03.48-1.59.48Z"/>
    <path class="cls-2" d="M108.12,251.06c-1.4,0-2.63-1.03-2.84-2.46l-2.75-18.93c-.22-1.5.77-2.92,2.26-3.23l22.14-4.59-15.47-60.88c-.39-1.54.54-3.1,2.08-3.49,1.54-.39,3.1.54,3.49,2.08l16.21,63.79c.19.76.07,1.56-.35,2.23-.42.66-1.08,1.13-1.85,1.29l-22.44,4.65,2.36,16.25c.23,1.57-.86,3.03-2.43,3.25-.14.02-.28.03-.42.03Z"/>
  </g>
</svg>