<?xml version="1.0" encoding="UTF-8"?>
<svg id="Layer_1" data-name="Layer 1" xmlns="http://www.w3.org/2000/svg" viewBox="0 0 314 314">
  <defs>
    <style>
      .cls-1 {
        fill: #c06f6f;
        stroke-width: 0px;
      }

      .cls-2 {
        fill: #362222;
        stroke: #c06f6f;
        stroke-linecap: round;
        stroke-linejoin: round;
        stroke-width: 5px;
      }
    </style>
  </defs>
  <rect class="cls-2" x="1.42" y="3.5" width="307" height="307" rx="153.5" ry="153.5"/>
  <g>
    <path class="cls-1" d="M245.65,113.29c-6.34,0-11.47,5.14-11.47,11.47s5.14,11.47,11.47,11.47,11.47-5.14,11.47-11.47-5.14-11.47-11.47-11.47ZM245.65,132.34c-4.18,0-7.57-3.39-7.57-7.57s3.39-7.57,7.57-7.57,7.57,3.39,7.57,7.57-3.39,7.57-7.57,7.57Z"/>
    <g>
      <path class="cls-1" d="M74.65,185.57l7.95-11.01c3.98,3.67,8.67,6.12,13.25,6.12,5.71,0,9.38-2.04,9.38-6.12,0-4.89-2.55-7.75-16.11-7.75v-12.23c10.81,0,14.07-2.85,14.07-7.34,0-3.87-2.35-5.91-6.73-5.91s-7.34,1.84-11.42,5.3l-8.77-10.6c6.32-5.3,13.05-8.36,21-8.36,14.27,0,23.45,6.53,23.45,18.25,0,6.22-3.47,10.91-10.4,13.97v.41c7.34,2.24,12.44,7.34,12.44,15.5,0,12.23-11.62,18.96-25.08,18.96-10.5,0-18.15-3.47-23.04-9.18Z"/>
      <path class="cls-1" d="M131.55,162.33c0-23.45,12.85-34.66,26.71-34.66,9.18,0,15.91,3.87,20.19,8.16l-9.18,10.4c-2.04-2.24-6.12-4.49-9.79-4.49-6.83,0-12.03,5.1-12.03,20.59s5,19.37,8.97,19.37c3.67,0,6.93-2.14,6.93-8.97,0-6.22-3.47-7.75-7.14-7.75-3.06,0-6.22,1.63-8.56,6.12l-.81-11.01c3.06-4.69,9.07-7.34,12.85-7.34,11.01,0,19.58,6.12,19.58,19.98s-10.19,22.02-22.43,22.02-25.28-8.97-25.28-32.42Z"/>
      <path class="cls-1" d="M186.2,160.9c0-22.12,9.79-33.24,24.06-33.24s24.06,11.22,24.06,33.24-9.79,33.85-24.06,33.85-24.06-11.72-24.06-33.85ZM217.81,160.9c0-17.13-3.47-19.78-7.54-19.78s-7.54,2.65-7.54,19.78,3.47,20.39,7.54,20.39,7.54-3.26,7.54-20.39Z"/>
    </g>
    <g>
      <path class="cls-1" d="M228.38,92.41l7.07-7.63c-52.75-41.58-128.49-38.59-177.79,7.13l7.63,7.08c45.37-41.55,114.57-44.31,163.09-6.58Z"/>
      <polygon class="cls-1" points="208.94 93.75 243.05 96.29 230.22 64.58 208.94 93.75"/>
    </g>
    <g>
      <path class="cls-1" d="M73.62,222.01l-7.07,7.63c51.99,40.57,126.05,38.09,175.21-5.68l-7.64-7.08c-45.21,39.63-112.75,41.87-160.5,5.14Z"/>
      <polygon class="cls-1" points="90.97 218.47 56.87 215.64 69.44 247.46 90.97 218.47"/>
    </g>
  </g>
</svg>