<?xml version="1.0" encoding="UTF-8"?>
<svg id="Layer_1" data-name="Layer 1" xmlns="http://www.w3.org/2000/svg" viewBox="0 0 314 314">
  <defs>
    <style>
      .cls-1 {
        fill: #c06f6f;
        stroke-width: 0px;
      }

      .cls-2 {
        fill: #362222;
        stroke: #c06f6f;
        stroke-linecap: round;
        stroke-linejoin: round;
        stroke-width: 5px;
      }
    </style>
  </defs>
  <rect class="cls-2" x="3.5" y="3.5" width="307" height="307" rx="153.5" ry="153.5"/>
  <g>
    <g>
      <g>
        <path class="cls-1" d="M238.81,85.14c2.64.05,5,1.71,5.77,4.18.25.81.29,1.34.29,2.25,0,1.44,0,2.88,0,4.32v103.39c0,.32,0,.65,0,.97-.01.97-.05,1.25-.4,2.23s-1.31,2.19-2.14,2.75c-1.5,1.01-2.66,1.12-4.54,1.12H107.82c-6.89,0-13.78,0-20.67,0h-11.02c-.28,0-.56,0-.84,0-.2,0-.41,0-.61-.02-1.01-.06-2.46-.65-3.17-1.21-1.66-1.33-2.34-2.93-2.37-4.89,0-.35,0-.7,0-1.05v-40.92c0-9.79,0-19.59,0-29.38v-24.86c0-4.17-.02-8.34,0-12.51.01-3.57,2.52-6.31,6.06-6.37,3.86-.07,3.87-6.07,0-6-6.7.13-11.98,5.48-12.06,12.17-.01,1.2,0,2.4,0,3.61v104.43c0,3.58.99,7.03,3.65,9.59,2.48,2.39,5.69,3.42,9.07,3.42h162.37c3.55,0,7.03-1.19,9.45-3.88s3.2-5.81,3.2-9.23v-96.69c0-3.76.05-7.52,0-11.27-.09-6.68-5.38-12.01-12.06-12.14-3.86-.07-3.86,5.93,0,6h0Z"/>
        <path class="cls-1" d="M66.13,185.1h143.3c6.6,0,13.24.19,19.84,0,.09,0,.18,0,.27,0,3.86,0,3.87-6,0-6H86.24c-6.6,0-13.24-.19-19.84,0-.09,0-.18,0-.27,0-3.86,0-3.87,6,0,6h0Z"/>
        <path class="cls-1" d="M125.01,251.98h63.81c3.86,0,3.87-6,0-6h-63.81c-3.86,0-3.87,6,0,6h0Z"/>
        <path class="cls-1" d="M138.21,248.07c.68-10.89,1.36-21.78,2.05-32.67.1-1.54.19-3.08.29-4.62.1-1.62-1.45-3-3-3-1.71,0-2.9,1.38-3,3-.68,10.89-1.36,21.78-2.05,32.67-.1,1.54-.19,3.08-.29,4.62-.1,1.62,1.45,3,3,3,1.71,0,2.9-1.38,3-3h0Z"/>
        <path class="cls-1" d="M181.99,248.8c-.68-10.89-1.36-21.78-2.05-32.67-.1-1.54-.19-3.08-.29-4.62-.1-1.62-1.31-3-3-3-1.55,0-3.1,1.37-3,3,.68,10.89,1.36,21.78,2.05,32.67.1,1.54.19,3.08.29,4.62.1,1.62,1.31,3,3,3,1.55,0,3.1-1.37,3-3h0Z"/>
      </g>
      <path class="cls-1" d="M96.03,164.98v-75.6l-.88,2.12c7.96-7.11,15.91-14.22,23.87-21.32,1.13-1.01,2.26-2.02,3.39-3.03l-2.12.88h95.88c1.29,0,2.62.09,3.91,0,.06,0,.12,0,.17,0l-3-3v87.66c0,4.03-.14,8.1,0,12.13,0,.06,0,.12,0,.17,0,3.86,6,3.87,6,0v-87.66c0-4.03.14-8.1,0-12.13,0-.06,0-.12,0-.17,0-1.62-1.37-3-3-3h-98.83c-.36,0-.73-.02-1.09,0-1.29.07-2.05.78-2.92,1.56-6.5,5.8-12.99,11.6-19.49,17.41-2.26,2.02-4.64,3.97-6.82,6.09-1.34,1.31-1.08,3.05-1.08,4.75v73.15c0,3.86,6,3.87,6,0h0Z"/>
      <path class="cls-1" d="M117.29,74.11v16.24l3-3h-14.66c-1.57,0-3.07,1.38-3,3s1.32,3,3,3h14.66c1.62,0,3-1.37,3-3v-16.24c0-1.57-1.38-3.07-3-3s-3,1.32-3,3h0Z"/>
    </g>
    <path class="cls-1" d="M152.22,111.32h47.24c3.86,0,3.87-6,0-6h-47.24c-3.86,0-3.87,6,0,6h0Z"/>
    <path class="cls-1" d="M152.22,124.9h23.16c3.86,0,3.87-6,0-6h-23.16c-3.86,0-3.87,6,0,6h0Z"/>
    <path class="cls-1" d="M112.42,116.24c2.58,2.25,5.16,4.51,7.74,6.76,1.16,1.01,3.12,1.29,4.24,0,3.25-3.72,6.51-7.44,9.76-11.16l1.41-1.61c1.03-1.18,1.25-3.1,0-4.24-1.13-1.04-3.14-1.26-4.24,0-3.25,3.72-6.51,7.44-9.76,11.16l-1.41,1.61h4.24c-2.58-2.25-5.16-4.51-7.74-6.76-1.18-1.03-3.1-1.25-4.24,0-1.04,1.13-1.26,3.14,0,4.24h0Z"/>
    <path class="cls-1" d="M151.85,146.66h47.24c3.86,0,3.87-6,0-6h-47.24c-3.86,0-3.87,6,0,6h0Z"/>
    <path class="cls-1" d="M151.85,160.23h23.16c3.86,0,3.87-6,0-6h-23.16c-3.86,0-3.87,6,0,6h0Z"/>
    <path class="cls-1" d="M112.06,151.57c2.58,2.25,5.16,4.51,7.74,6.76,1.16,1.01,3.12,1.29,4.24,0,3.25-3.72,6.51-7.44,9.76-11.16.47-.54.94-1.07,1.41-1.61,1.03-1.18,1.25-3.1,0-4.24-1.13-1.04-3.14-1.26-4.24,0-3.25,3.72-6.51,7.44-9.76,11.16-.47.54-.94,1.07-1.41,1.61h4.24c-2.58-2.25-5.16-4.51-7.74-6.76-1.18-1.03-3.1-1.25-4.24,0-1.04,1.13-1.26,3.14,0,4.24h0Z"/>
  </g>
</svg>