<?xml version="1.0" encoding="UTF-8"?>
<svg id="Layer_1" data-name="Layer 1" xmlns="http://www.w3.org/2000/svg" viewBox="0 0 314 314">
  <defs>
    <style>
      .cls-1 {
        fill: #185b5b;
        stroke-width: 5px;
      }

      .cls-1, .cls-2 {
        stroke: #7ed8b5;
        stroke-linecap: round;
        stroke-linejoin: round;
      }

      .cls-2 {
        fill: none;
        stroke-width: 4px;
      }
    </style>
  </defs>
  <rect class="cls-1" x="3.5" y="3.5" width="307" height="307" rx="153.5" ry="153.5"/>
  <g>
    <polyline class="cls-2" points="70.64 224.32 113.6 224.32 113.6 244.5"/>
    <polyline class="cls-2" points="102.69 212.21 145.64 212.21 145.64 233.56"/>
    <polyline class="cls-2" points="134.73 198.61 177.69 198.61 177.69 219.96"/>
    <polyline class="cls-2" points="166.77 185.75 209.73 185.75 209.73 207.1"/>
    <polyline class="cls-2" points="204.82 172.9 247.78 172.9 247.78 194.25"/>
    <path class="cls-2" d="M213.54,107.16v20.51c0,3.41,2.76,6.17,6.17,6.17h0c3.41,0,6.17-2.76,6.17-6.17v-22.02c0-4.87-3.95-8.82-8.82-8.82h-21.43c-2.16,0-4.29.49-6.24,1.42l-27.75,13.31c-2.94,1.41-4.18,4.95-2.76,7.88h0c1.38,2.86,4.74,4.12,7.64,2.89,9.21-3.92,27.49-11.66,27.49-11.66l1.67,18.51-11.54,11.07c-2.41,2.31-3.72,5.55-3.58,8.89l1.26,30.64c.11,3.01,2.58,5.4,5.6,5.4h0c3.09,0,5.6-2.51,5.6-5.6v-27.4l12.67-8.34.4,22.63c.06,3.55,2.96,6.39,6.5,6.39h0c3.64,0,6.56-2.98,6.5-6.61l-.4-23.29"/>
    <circle class="cls-2" cx="206.19" cy="80" r="10.5"/>
    <path class="cls-2" d="M99.76,131.08s18.29-7.74,27.49-11.66c2.9-1.23,6.25.03,7.64,2.89h0c1.42,2.94.19,6.47-2.76,7.88l-27.75,13.31c-1.68.81-3.49,1.28-5.34,1.39l.72,19.66,15.82,13.51c2.41,2.31,3.72,5.55,3.58,8.89l-1.26,19.22c-.11,3.01-2.58,5.4-5.6,5.4h0c-3.09,0-5.6-2.51-5.6-5.6v-15.98l-12.67-8.34-.4,36.19c-.06,3.55-2.96,6.39-6.5,6.39h0c-3.64,0-6.56-2.98-6.5-6.61v-44.73"/>
    <path class="cls-2" d="M78.56,141.41v20.51c0,3.41-2.76,6.17-6.17,6.17h0c-3.41,0-6.17-2.76-6.17-6.17v-22.02c0-4.87,3.95-8.82,8.82-8.82h24.71"/>
    <circle class="cls-2" cx="89.33" cy="113.51" r="10.5"/>
  </g>
</svg>