<?xml version="1.0" encoding="UTF-8"?>
<svg id="Layer_1" data-name="Layer 1" xmlns="http://www.w3.org/2000/svg" viewBox="0 0 314 314">
  <defs>
    <style>
      .cls-1 {
        fill: #185b5b;
        stroke-width: 5px;
      }

      .cls-1, .cls-2 {
        stroke: #7ed8b5;
        stroke-linecap: round;
        stroke-linejoin: round;
      }

      .cls-2 {
        fill: none;
        stroke-width: 4px;
      }
    </style>
  </defs>
  <rect class="cls-1" x="3.5" y="3.5" width="307" height="307" rx="153.5" ry="153.5"/>
  <g>
    <rect class="cls-2" x="154.82" y="83.66" width="83.61" height="69.88"/>
    <g>
      <ellipse class="cls-2" cx="104.74" cy="183.18" rx="14.75" ry="16.8"/>
      <path class="cls-2" d="M113.49,232.54h-32.86c-4.54,0-7.84-4.34-6.6-8.72,2.07-7.31,6.68-13.55,12.82-17.72,2.28-1.54,5.26-1.63,7.61-.2,3,1.82,6.52,2.87,10.29,2.87s7.28-1.05,10.28-2.87c2.35-1.43,5.33-1.34,7.61.2"/>
    </g>
    <g>
      <ellipse class="cls-2" cx="157" cy="183.18" rx="14.75" ry="16.8"/>
      <path class="cls-2" d="M126.29,223.83c2.07-7.31,6.68-13.55,12.82-17.72,2.28-1.54,5.26-1.63,7.61-.2,3,1.82,6.52,2.87,10.29,2.87s7.28-1.05,10.28-2.87c2.35-1.43,5.33-1.34,7.61.2,6.14,4.16,10.75,10.4,12.82,17.72,1.24,4.37-2.06,8.72-6.6,8.72h-48.22c-4.54,0-7.84-4.34-6.6-8.72Z"/>
    </g>
    <g>
      <ellipse class="cls-2" cx="209.26" cy="183.18" rx="14.75" ry="16.8"/>
      <path class="cls-2" d="M191.36,206.11c2.28-1.54,5.26-1.63,7.61-.2,3,1.82,6.52,2.87,10.29,2.87s7.28-1.05,10.28-2.87c2.35-1.43,5.33-1.34,7.61.2,6.14,4.16,10.75,10.4,12.82,17.72,1.24,4.37-2.06,8.72-6.6,8.72h-33.71"/>
    </g>
    <g>
      <ellipse class="cls-2" cx="110.91" cy="99.76" rx="16.07" ry="18.3"/>
      <path class="cls-2" d="M76.14,153.54c0-11.98,6.06-22.55,15.28-28.8,2.48-1.68,5.73-1.77,8.29-.22,3.27,1.98,7.11,3.12,11.21,3.12s7.94-1.14,11.2-3.12c2.56-1.55,5.81-1.46,8.29.22,9.22,6.25,15.28,16.82,15.28,28.8h-69.55Z"/>
    </g>
    <line class="cls-2" x1="154.82" y1="97.7" x2="238.42" y2="97.7"/>
    <polyline class="cls-2" points="191.68 138.48 166.16 138.48 166.16 112.95"/>
    <line class="cls-2" x1="194.51" y1="111.12" x2="224.01" y2="111.12"/>
    <line class="cls-2" x1="194.51" y1="125.72" x2="224.01" y2="125.72"/>
  </g>
</svg>