<?xml version="1.0" encoding="UTF-8"?>
<svg id="Layer_1" data-name="Layer 1" xmlns="http://www.w3.org/2000/svg" viewBox="0 0 314 314">
  <defs>
    <style>
      .cls-1 {
        fill: #7ed8b5;
        stroke-width: 0px;
      }

      .cls-2 {
        fill: #185b5b;
        stroke: #7ed8b5;
        stroke-linecap: round;
        stroke-linejoin: round;
        stroke-width: 5px;
      }
    </style>
  </defs>
  <rect class="cls-2" x="3.5" y="3.5" width="307" height="307" rx="153.5" ry="153.5"/>
  <g>
    <path class="cls-1" d="M141.74,161.95c9.56,0,18.81-.01,28.05.01,1.65,0,2.38-.98,2.83-2.36.98-2.98,2.06-5.92,2.93-8.93,1.05-3.63,3.13-6.09,7-6.63,4.12-.57,6.78,1.54,8.73,4.93,1.86,3.23,3.78,6.43,5.73,9.61,2.52,4.12,5.84,6.31,11.06,5.86,5.49-.48,11.05.03,16.57-.13,10.06-.28,17.22,7.87,16.69,17-.27,4.61-.01,9.25-.06,13.88-.08,7.37-2.99,10.07-10.52,9.86-.26,0-.53.18-1.13.39-.07,1.31-.2,2.77-.21,4.22-.02,8.06-.46,16.16.1,24.18.76,10.84-9.02,14.22-15.86,9.15-.84.41-1.75.88-2.68,1.3-6.67,2.98-13.02-.76-13.39-8.02-.19-3.72-.05-7.46-.05-11.2,0-12.39-.07-24.78.05-37.18.03-2.64-.8-4.39-2.87-6.05-2.87-2.3-5.41-5.02-8.09-7.56q-4.98,5.93-13.25,9.66c1.12,6.33,2.25,12.76,3.4,19.19.87,4.84,1.79,9.68,2.66,14.53,1.03,5.72.11,7.23-5.52,9.25-.26.09-.47.35-1.06.79,0,1.65.04,3.57,0,5.49-.19,8.1-6.58,11.98-13.92,8.46-.66-.32-1.28-.7-1.9-1.03-1.34.65-2.49,1.35-3.74,1.79-6.02,2.1-11.73-1.56-12.24-7.9-.19-2.35-.03-4.73-.03-7.16-1.02-.36-1.71-.59-2.39-.84-3.76-1.39-5.11-3.59-4.48-7.58,1.45-9.13,2.97-18.26,4.45-27.39.4-2.49.79-4.99,1.27-8.02-5.42-1.1-10.36-3.05-12.59-8.79-3.43,3.08-6.66,5.7-9.5,8.69-.95,1-1.23,2.94-1.24,4.46-.09,13.44-.05,26.87-.05,40.31,0,2.39.03,4.78-.01,7.17-.14,8.34-6.68,12.29-14.12,8.52-.53-.27-1.03-.59-.96-.55-3.1.72-5.65,1.74-8.23,1.82-4.25.13-7.3-2.64-8.16-6.84-.3-1.45-.34-2.96-.35-4.44-.03-8.06,0-16.12-.03-24.19,0-1.46-.15-2.91-.25-4.69-1.16.09-2,.21-2.85.21-4.82-.01-8.44-3.01-8.65-7.81-.28-6.26-.4-12.56.02-18.8.54-7.99,7.01-13.88,15.24-14.18,6.56-.24,13.15-.21,19.71-.03,3.13.09,5.61-.78,7.35-3.31,2.79-4.05,5.51-8.14,8.1-12.31,1.58-2.54,3.38-4.53,6.56-4.79,4.02-.32,7.45,1.98,8.75,6.19.84,2.7,1.32,5.51,2,8.26.25.99.61,1.96,1.09,3.5ZM178.04,158.95c-.7,1.07-1.05,1.41-1.16,1.81-1.15,4.34-4.01,5.74-8.37,5.62-8.2-.23-16.41-.03-24.62-.08-4.59-.03-6.17-1.29-7.27-5.64-.73-2.89-1.24-5.84-2.05-8.7-.74-2.64-2.45-3.88-4.42-3.55-1.97.32-3.3,2.14-2.88,4.82.9,5.73,1.93,11.46,3.19,17.12,1.12,5.01,4.3,7.86,9.57,8.63,4.66.68,4.8,1.16,4.15,5.89-.1.74-.27,1.47-.39,2.2-1.69,10.45-3.39,20.89-5.03,31.34-.17,1.1-.02,2.24-.02,3.29,5.3,1.01,33.14.79,36.58-.29-.05-.93,0-1.94-.18-2.91-1.08-6.16-2.21-12.32-3.34-18.48-.97-5.28-2.01-10.54-2.93-15.83-.66-3.76-.25-4.26,3.58-5.14,1.31-.3,2.65-.51,3.91-.93,4.34-1.44,7.81-7.84,6.08-11.44-1.21-2.53-2.77-4.89-4.4-7.72ZM201.91,210.06c0,7.76-.02,15.52.02,23.28,0,1.48.03,3.01.4,4.43.58,2.25,2.44,3.36,4.77,3.13,2.19-.21,3.65-1.34,3.92-3.59.21-1.77.31-3.57.32-5.35.04-5.67.01-11.34.04-17.01,0-1.53.17-3.31,2.19-3.21,1.85.09,2.2,1.73,2.2,3.33,0,2.84,0,5.67.01,8.51.01,4.33-.08,8.66.08,12.98.1,2.76,1.66,4.2,4.14,4.36,2.65.18,4.54-1.31,4.95-4.09.19-1.32.11-2.68.11-4.02,0-14.92,0-29.84,0-44.77,0-1.04.02-2.09.01-3.13,0-1.47.35-2.84,2.05-2.89,1.68-.05,2.23,1.23,2.25,2.73.03,2.98,0,5.97.04,8.95.02,1.34-.04,2.71.23,4.01.36,1.74,1.45,2.98,3.37,3.04,2.13.07,3.29-1.21,3.74-3.15.2-.86.16-1.78.16-2.67.01-4.48-.22-8.97.05-13.43.45-7.41-5.25-13.17-12.79-12.79-6.4.32-12.84-.03-19.25.1-3.24.07-5.98-.85-7.88-3.4-2.84-3.82-5.44-7.8-8.12-11.74-.92-1.35-1.5-3.07-2.71-4.04-.97-.78-2.76-1.15-3.99-.86-1.77.41-2.47,2.14-2.08,3.93.25,1.14.81,2.23,1.37,3.27,1.57,2.88,3.35,5.66,4.81,8.59,3.13,6.27,7.45,11.51,13.18,15.54,1.94,1.37,2.49,3.07,2.46,5.34-.09,8.21-.04,16.41-.04,24.62ZM123.44,158.16c-1.86,2.25-3.19,3.8-4.46,5.39-2.97,3.74-6.57,5.62-11.6,5.31-6.24-.39-12.53-.19-18.79-.05-6.22.15-10.96,4.38-11.33,10.45-.34,5.65-.19,11.33-.06,17,.07,2.95,1.7,4.6,3.91,4.5,2.05-.08,3.36-1.57,3.48-4.38.14-3.28.04-6.56.1-9.84.02-1.03-.02-2.16.39-3.05.3-.66,1.29-1.42,1.95-1.39.64.02,1.61.88,1.79,1.55.34,1.26.29,2.65.29,3.99.02,14.91,0,29.82.02,44.73,0,1.49-.04,3,.16,4.46.38,2.69,1.97,4.07,4.45,4.09,2.49.03,4.12-1.29,4.54-3.99.27-1.76.24-3.57.25-5.35.04-5.82-.04-11.64.14-17.45.03-.85,1.27-1.66,1.96-2.48.74.8,1.8,1.48,2.14,2.43.38,1.06.13,2.35.13,3.55.02,6.26-.06,12.53.1,18.79.08,2.97,1.8,4.47,4.47,4.49,2.65.02,4.32-1.52,4.64-4.41.13-1.18.06-2.38.06-3.58,0-15.36.09-30.72-.07-46.08-.03-3.27.56-5.72,3.51-7.52,1.75-1.07,3.14-2.74,4.72-4.09,3.95-3.38,6.02-7.29,3.95-12.58-.42-1.08-.45-2.32-.84-4.49ZM145.55,227.06c0,2.82-.24,5.34.07,7.79.33,2.57,2.24,3.81,4.78,3.68,2.39-.13,3.87-1.34,4.09-3.86.22-2.46.05-4.96.05-7.6h-8.99ZM168.47,226.89c-3.44.06-6.31-.86-9.17.7,0,2.3-.12,4.38.03,6.44.21,3.01,1.74,4.48,4.41,4.51,2.65.03,4.41-1.47,4.69-4.35.21-2.2.04-4.43.04-7.3Z"/>
    <path class="cls-1" d="M156.92,105.22c-3.02,1.86-5.92,3.66-8.83,5.44-.89.55-1.75,1.18-2.7,1.58-2.4,1.02-3.93-.07-3.45-2.64.6-3.22,1.47-6.39,2.35-9.54.67-2.39.43-4.21-1.81-5.79-2.55-1.8-4.9-3.91-7.16-6.07-.75-.71-1.55-2.18-1.29-2.94.28-.8,1.76-1.53,2.8-1.67,2.8-.37,5.65-.52,8.48-.56,3.01-.04,5.01-1.02,5.93-4.17.83-2.85,2.07-5.6,3.39-8.26.44-.89,1.62-1.8,2.56-1.93.62-.09,1.72,1.07,2.11,1.9,1.27,2.69,2.54,5.42,3.38,8.27.92,3.13,2.88,4.18,5.91,4.19,2.68.01,5.38.13,8.03.5,1.19.17,2.27,1.07,3.41,1.64-.57,1.11-.9,2.48-1.75,3.3-2.26,2.16-4.65,4.21-7.16,6.08-1.86,1.39-2.18,2.97-1.6,5.05.83,3.01,1.69,6.04,2.24,9.11.2,1.14-.09,2.7-.79,3.53-.38.45-2.26.05-3.18-.46-3.62-2.04-7.13-4.28-10.85-6.55ZM147.69,104.44c.28.23.55.47.83.7,1.89-1.13,3.87-2.14,5.64-3.44,2-1.47,3.72-1.33,5.67.06,1.77,1.26,3.72,2.27,6.19,3.76-.2-1.8-.08-2.89-.46-3.76-2.12-4.81-1.1-8.52,3.51-11.24.92-.54,1.55-1.57,2.75-2.83-2.72-.24-4.76-.5-6.81-.59-2.66-.11-4.45-1.15-5.26-3.86-.57-1.91-1.52-3.71-2.3-5.56-.33-.01-.67-.02-1-.03-.78,1.84-1.73,3.63-2.31,5.54-.81,2.66-2.49,3.81-5.2,3.92-2.08.09-4.15.45-7.21.81,2.67,2.28,4.42,3.87,6.27,5.34,1.47,1.18,1.86,2.56,1.37,4.34-.62,2.26-1.13,4.55-1.69,6.83Z"/>
    <path class="cls-1" d="M95.98,102.88c-2.75-1.57-5.53-3.02-8.13-4.74-.84-.55-1.6-1.8-1.64-2.76-.02-.62,1.23-1.57,2.09-1.89,2.09-.76,4.26-1.4,6.45-1.78,2.48-.43,3.49-1.86,3.83-4.18.32-2.21.69-4.43,1.31-6.57.25-.86,1.11-1.99,1.87-2.15.74-.16,1.98.56,2.52,1.26,1.54,2,2.9,4.15,4.21,6.33.97,1.62,2.2,2.19,4.08,1.88,2.5-.41,5.03-.73,7.55-.8,2.68-.08,3.55,1.48,2.09,3.7-1.31,1.98-2.85,3.83-4.44,5.6-1.47,1.64-1.85,3.18-.71,5.21,1.16,2.07,2.14,4.27,2.93,6.51.96,2.71-.35,4.03-3.16,3.18-2.42-.73-4.77-1.7-7.11-2.66-1.56-.64-2.82-.49-4.03.76-1.35,1.39-2.74,2.78-4.29,3.92-1.23.91-2.9,2.22-4.09,1.97-1.98-.41-1.3-2.66-1.33-4.23-.04-2.68-.01-5.35-.01-8.58ZM103.44,87.54c-.86,2.42-1.08,4.97-2.46,6.43-1.35,1.43-3.88,1.76-6.1,2.65,2.07,1.61,4.4,2.64,5.34,4.4.92,1.71.42,4.18.57,6.81,2.23-1.58,3.87-3.55,5.8-3.9,2.03-.37,4.35.79,6.75,1.34-.76-2.58-2.05-4.77-1.81-6.78.23-1.9,2.06-3.61,3.3-5.59q-6.82-.25-11.39-5.36Z"/>
    <path class="cls-1" d="M206.44,108.3c-2.9,1.08-5.64,2.24-8.47,3.1-1.17.36-2.53.09-3.8.1,0-1.25-.31-2.6.06-3.73.96-2.94,3.33-5.9,3.04-8.63-.27-2.53-3.38-4.7-5-7.18-.64-.99-1.03-2.46-.8-3.56.11-.5,2-.82,3.1-.85,1.63-.04,3.37-.06,4.88.45,3.6,1.2,5.6-.34,7.12-3.39.72-1.46,1.64-2.87,2.72-4.09.71-.81,1.93-1.82,2.76-1.69.8.13,1.72,1.49,2.02,2.49.68,2.28,1.06,4.65,1.45,7,.31,1.84,1.21,2.84,3.11,3.24,2.47.51,4.94,1.19,7.31,2.06,2.43.89,2.7,2.84.58,4.28-2.09,1.42-4.34,2.63-6.6,3.77-1.69.85-2.37,2.02-2.23,3.91.19,2.52.3,5.07.2,7.6-.04.9-.58,2.23-1.26,2.54-.68.31-2.04-.17-2.74-.74-2.52-2.08-4.88-4.34-7.44-6.66ZM219.01,96.62c-2.37-1-4.88-1.37-6.24-2.82-1.35-1.45-1.53-3.98-2.35-6.38-1.66,1.95-2.78,4.26-4.58,5.1-1.79.83-4.27.18-7.17.18.96,1.35,1.43,2.26,2.12,2.95,1.99,1.97,2.22,4.03.82,6.44-.52.9-.66,2.03-1.02,3.21,2.65-.57,4.93-1.7,6.91-1.31,1.91.38,3.52,2.32,5.9,4.03,0-2.81-.66-5.19.18-6.8.93-1.78,3.22-2.84,5.42-4.61Z"/>
    <path class="cls-1" d="M112.86,147.82c.01,6.74-5.44,12.21-12.19,12.22-6.75.02-12.24-5.42-12.28-12.16-.04-6.72,5.45-12.2,12.22-12.21,6.81,0,12.24,5.38,12.25,12.15ZM100.74,140.12c-4.38-.05-7.7,3.1-7.84,7.43-.15,4.48,3.27,8.1,7.66,8.14,4.33.04,8.01-3.66,7.93-7.97-.07-4.22-3.48-7.56-7.76-7.6Z"/>
    <path class="cls-1" d="M169.23,145.42c.04,6.71-5.43,12.18-12.22,12.21-6.8.03-12.31-5.36-12.35-12.08-.04-6.67,5.49-12.2,12.23-12.24,6.74-.03,12.3,5.42,12.34,12.11ZM156.96,153.23c4.26,0,7.73-3.34,7.86-7.54.13-4.3-3.54-8.03-7.88-8.03-4.37,0-7.99,3.72-7.85,8.05.14,4.22,3.6,7.52,7.87,7.52Z"/>
    <path class="cls-1" d="M213.41,135.67c6.78-.04,12.3,5.37,12.34,12.1.04,6.71-5.45,12.23-12.18,12.27-6.73.04-12.31-5.42-12.38-12.12-.08-6.64,5.49-12.21,12.23-12.25ZM221.38,147.77c-.05-4.36-3.73-7.79-8.19-7.65-4.26.14-7.58,3.59-7.52,7.83.06,4.19,3.53,7.68,7.7,7.74,4.31.07,8.06-3.64,8.01-7.93Z"/>
  </g>
</svg>