<?xml version="1.0" encoding="UTF-8"?>
<svg id="Layer_1" data-name="Layer 1" xmlns="http://www.w3.org/2000/svg" viewBox="0 0 314 314">
  <defs>
    <style>
      .cls-1 {
        fill: #185b5b;
        stroke-width: 5px;
      }

      .cls-1, .cls-2 {
        stroke: #7ed8b5;
        stroke-linecap: round;
        stroke-linejoin: round;
      }

      .cls-2 {
        fill: none;
        stroke-width: 4px;
      }
    </style>
  </defs>
  <rect class="cls-1" x="3.5" y="3.5" width="307" height="307" rx="153.5" ry="153.5"/>
  <g>
    <g>
      <g>
        <line class="cls-2" x1="154.95" y1="167.48" x2="199.68" y2="150.72"/>
        <path class="cls-2" d="M153.83,201.78h-3.89c-9.47,0-17.15-7.68-17.15-17.15,0-4.73,1.92-9.03,5.02-12.13,3.1-3.11,7.39-5.03,12.13-5.03h5.01"/>
        <line class="cls-2" x1="199.68" y1="218.64" x2="153.83" y2="201.78"/>
        <path class="cls-2" d="M166.46,213.09v20.4c0,6-4.86,10.86-10.86,10.86h0c-6,0-10.86-4.86-10.86-10.86v-26.65"/>
      </g>
      <ellipse class="cls-2" cx="206.43" cy="184.63" rx="15.18" ry="37.17"/>
      <line class="cls-2" x1="154.95" y1="167.48" x2="154.95" y2="201.78"/>
      <path class="cls-2" d="M202.38,177.65c3.85,0,6.98,3.12,6.98,6.98s-3.12,6.98-6.98,6.98"/>
      <g>
        <line class="cls-2" x1="229.61" y1="202.6" x2="245.11" y2="219.96"/>
        <line class="cls-2" x1="233.71" y1="184.31" x2="255" y2="184.31"/>
        <line class="cls-2" x1="229.61" y1="166.03" x2="245.11" y2="148.67"/>
      </g>
    </g>
    <g>
      <g>
        <path class="cls-2" d="M150.66,99.94c0,16.72-13.56,40.67-30.28,40.67s-30.28-23.94-30.28-40.67,13.56-30.28,30.28-30.28,30.28,13.56,30.28,30.28Z"/>
        <path class="cls-2" d="M127.03,217.2c-2.19.12-4.41.17-6.65.17-23.56,0-44.4-6.49-57.13-16.44-3.19-2.49-4.74-6.54-4.11-10.54,2.8-17.78,13.16-33.05,27.68-42.41,4.3-2.77,9.85-2.71,14.13.1,5.58,3.67,12.26,5.81,19.44,5.81s13.86-2.14,19.44-5.81c4.28-2.82,9.82-2.88,14.13-.1,1.71,1.11,3.37,2.29,4.97,3.56"/>
      </g>
      <path class="cls-2" d="M150.66,99.94c0,16.72-13.56,40.67-30.28,40.67s-30.28-23.94-30.28-40.67,13.56-30.28,30.28-30.28,30.28,13.56,30.28,30.28Z"/>
    </g>
  </g>
</svg>