<?xml version="1.0" encoding="UTF-8"?>
<svg id="Layer_1" data-name="Layer 1" xmlns="http://www.w3.org/2000/svg" viewBox="0 0 314 314">
  <defs>
    <style>
      .cls-1 {
        fill: #185b5b;
        stroke-width: 5px;
      }

      .cls-1, .cls-2 {
        stroke: #7ed8b5;
        stroke-linecap: round;
        stroke-linejoin: round;
      }

      .cls-2 {
        fill: none;
        stroke-width: 4px;
      }
    </style>
  </defs>
  <rect class="cls-1" x="3.5" y="3.5" width="307" height="307" rx="153.5" ry="153.5"/>
  <g>
    <circle class="cls-2" cx="211.82" cy="88.46" r="14.98" transform="translate(52.83 254.04) rotate(-68.83)"/>
    <path class="cls-2" d="M206.43,117.95c.92-.02,4.35-.03,5.31-.03,9.31.03,16.66,1.15,21.78,2.64,7.94,2.31,13.1,9.17,12.78,16.62l-.81,28.12c-.15,3.45-1.26,6.8-3.21,9.79"/>
    <path class="cls-2" d="M193.45,194.08l.1,36.87v2.11c0,3.19,2.58,5.77,5.77,5.77h6.15c3.19,0,5.77-2.58,5.77-5.77v-2.79"/>
    <polyline class="cls-2" points="211.24 230.95 211.45 188.95 211.24 230.97"/>
    <path class="cls-2" d="M229.92,141.31l-.99,89.74v2.01c0,3.19-2.58,5.77-5.77,5.77h-6.14c-3.19,0-5.77-2.58-5.77-5.77v-2.1"/>
    <circle class="cls-2" cx="102.18" cy="88.46" r="14.98" transform="translate(-32.62 98.16) rotate(-45)"/>
    <path class="cls-2" d="M107.57,117.95c-.92-.02-4.35-.03-5.31-.03-9.31.03-16.66,1.15-21.78,2.64-7.94,2.31-13.1,9.17-12.78,16.62l.81,28.12c.15,3.45,1.26,6.8,3.21,9.79"/>
    <path class="cls-2" d="M120.55,194.08l-.1,36.87v2.11c0,3.19-2.58,5.77-5.77,5.77h-6.15c-3.19,0-5.77-2.58-5.77-5.77v-2.79"/>
    <polyline class="cls-2" points="102.76 230.95 102.55 188.95 102.76 230.97"/>
    <path class="cls-2" d="M84.08,141.31l.99,89.74v2.01c0,3.19,2.58,5.77,5.77,5.77h6.14c3.19,0,5.77-2.58,5.77-5.77v-2.1"/>
    <circle class="cls-2" cx="157.06" cy="83.32" r="17.91" transform="translate(44.76 221.16) rotate(-78.77)"/>
    <path class="cls-2" d="M136.66,183.84h0c-6.83.04-13.05-4.14-15.35-10.57-.73-2.04-1.15-4.16-1.22-6.32l-1.1-31.16c-.29-8.25,5.47-15.81,14.28-18.31,5.68-1.62,13.39-2.82,23.7-2.79,10.31.03,17.99,1.27,23.66,2.92,8.8,2.56,14.51,10.16,14.15,18.41l-1.36,31.14c-.11,2.46-.66,4.88-1.61,7.17-2.46,5.92-8.3,9.72-14.71,9.72h0"/>
    <path class="cls-2" d="M136.55,140.46l.28,99.41v1.64c0,3.91,3.17,7.08,7.08,7.08h5.43c3.91,0,7.08-3.17,7.08-7.08v-1.63"/>
    <polyline class="cls-2" points="156.42 239.86 156.65 193.35 156.42 239.88"/>
    <path class="cls-2" d="M177.1,140.58l-1.1,99.4v1.53c0,3.91-3.17,7.08-7.08,7.08h-5.42c-3.91,0-7.08-3.17-7.08-7.08v-1.63"/>
  </g>
</svg>